<svg height="512" viewBox="0 0 64 64" width="512" xmlns="http://www.w3.org/2000/svg"><g id="Loader"><path d="m59.859 7.326-7.727-2.071a4 4 0 0 0 -4.9 2.829l-5.432 20.292-4.94 18.629a6.939 6.939 0 0 1 3.8 1.027h.015l10.163-37.947a1 1 0 0 1 1.224-.707l6.762 1.812a2 2 0 0 0 1.035-3.864z" fill="#ff5023"/><path d="m41.797 28.368-27.045-7.247-6.212 23.183.108.039 26.96 7.365z" fill="#b38b63"/><path d="m29.777 46.115-20.241-5.529-1 3.718.108.039 26.96 7.365 6.196-23.34-.99-.265-3.65 13.762a6 6 0 0 1 -7.383 4.25z" fill="#a97c50"/><path d="m31.033 50.345v-.014l-22.493-6.031-1.932-.518a2 2 0 0 0 -1.035 3.868l24.427 6.55v-.014a6.946 6.946 0 0 1 1.028-3.836z" fill="#ff5023"/><path d="m43.76 55.81a7 7 0 1 1 -4.95-8.57 6.994 6.994 0 0 1 4.95 8.57z" fill="#006df0"/><path d="m39.9 54.776a3 3 0 1 0 -3.676 2.124 3 3 0 0 0 3.676-2.124z" fill="#f1f2f2"/><path d="m22.789 33.628 3.415-1.156 2.38 2.709 2.588-9.66-5.795-1.553z" fill="#ffb655"/><path d="m45.94 12.91-4.14 15.46-10.63-2.85-5.79-1.55-4.83-1.3 4.14-15.45 8.69 2.33 3.87 1.03z" fill="#cba57c"/><path d="m42.835 22.505a4 4 0 0 1 -4.9 2.829l-6.765-1.814-5.79-1.55-4.33-1.165-.5 1.865 4.83 1.3 5.79 1.55 10.63 2.85 4.14-15.46-.5-.134z" fill="#c49a6c"/><path d="m25.377 23.968 5.795 1.553z" fill="#9bc9ff"/><path d="m31.311 17.276 2.449-1.414 1.415 2.45 2.07-7.728-3.863-1.035z" fill="#ffb655"/></g></svg>